<svg width="200" height="200" xmlns="http://www.w3.org/2000/svg">
    <g>
        <title>The Joker</title>
        <!-- Face -->
        <circle fill="#f4e1d2" stroke="#000000" stroke-width="2" cx="100" cy="100" r="80"/>
        <!-- Eyes -->
        <circle fill="#ffffff" stroke="#000000" stroke-width="2" cx="70" cy="80" r="15"/>
        <circle fill="#ffffff" stroke="#000000" stroke-width="2" cx="130" cy="80" r="15"/>
        <circle fill="#000000" cx="70" cy="80" r="5"/>
        <circle fill="#000000" cx="130" cy="80" r="5"/>
        <!-- Eyebrows -->
        <path d="M 55 65 Q 70 50, 85 65" stroke="#000000" stroke-width="4" fill="none"/>
        <path d="M 115 65 Q 130 50, 145 65" stroke="#000000" stroke-width="4" fill="none"/>
        <!-- Mouth -->
        <path d="M 60 130 Q 100 170, 140 130 Q 100 150, 60 130 Z" fill="#ff0000"/>
        <!-- Hair -->
        <path d="M 20 60 Q 50 20, 100 40 Q 150 20, 180 60 Q 150 40, 100 20 Q 50 40, 20 60 Z" fill="#00ff00"/>
        <!-- Smile lines -->
        <path d="M 60 130 Q 50 120, 60 110 M 140 130 Q 150 120, 140 110" stroke="#ff0000" stroke-width="2"/>
        <!-- Nose -->
        <circle fill="#ff0000" cx="100" cy="100" r="5"/>
    </g>
</svg>
